<svg xmlns="http://www.w3.org/2000/svg" width="32" height="21"><g opacity=".2"><path d="M28 0H4a4 4 0 00-4 4v13a4 4 0 004 4h24a4 4 0 004-4V4a4 4 0 00-4-4zM2 5.25l7 5.25-7 5.25zM30 17a2 2 0 01-2 2H4a2 2 0 01-2-2l7.832-5.875L14.2 14.4a3 3 0 003.6 0l4.369-3.277L30 17zm0-1.25l-7-5.25 7-5.25zM17.2 13.6a2 2 0 01-2.4 0l-4.135-3.1-.833-.625L2 4a2 2 0 012-2h24a2 2 0 012 2z" fill="#333" data-name="mail.svg"/><path data-name="Color Overlay" d="M4 21a4 4 0 01-4-4V4a4 4 0 014-4h24a4 4 0 014 4v13a4 4 0 01-4 4zm-2-4a2 2 0 002 2h24a2 2 0 002-2l-7.833-5.875L17.8 14.4a3 3 0 01-3.6 0l-4.368-3.277zm21-6.5l7 5.251v-10.5zM2 15.751L9 10.5 2 5.25zm0-11.75l7.833 5.874.832.625 4.135 3.1a2 2 0 002.4 0L30 4a2 2 0 00-2-2H4a2 2 0 00-2 2z"/></g></svg>