<svg xmlns="http://www.w3.org/2000/svg" width="25.001" height="24"><g opacity=".2"><g data-name="phone.svg"><g data-name="Group 5"><g data-name="Group 4"><path data-name="Path 6" d="M17.441 24h-1.123A17.476 17.476 0 015.13 18.306 18.946 18.946 0 010 6.724v-1.34a3.3 3.3 0 011.074-2.057A4.548 4.548 0 013.614 1.8a3.243 3.243 0 012.247 1.047 7.331 7.331 0 01.78 2.346 8.525 8.525 0 01.488 2.68c-.177 1.18-1.776 1.68-2.246 2.537a16.549 16.549 0 007.524 8.231c.852-.459 1.606-1.839 2.785-1.866a5.269 5.269 0 011.417.335c.479.141.9.322 1.319.478a5.819 5.819 0 012.394 1.2 3.408 3.408 0 01.585 2.2c-.194 1.212-2.241 2.563-3.466 3.012z"/></g><path data-name="Path 7" d="M12.615 1.507A10.735 10.735 0 0123.46 12.131H25A12.26 12.26 0 0012.615 0z"/><path data-name="Path 8" d="M12.615 9.2v1.53a1.416 1.416 0 011.431 1.4h1.563a2.962 2.962 0 00-2.994-2.93z"/><path data-name="Path 9" d="M12.615 6.161a6.034 6.034 0 016.1 5.971h1.6a7.617 7.617 0 00-7.7-7.537z"/></g></g><path data-name="Color Overlay" d="M16.318 24A17.476 17.476 0 015.13 18.307 18.948 18.948 0 010 6.725V5.386a3.3 3.3 0 011.075-2.057 4.546 4.546 0 012.539-1.532 3.237 3.237 0 012.247 1.051 7.321 7.321 0 01.78 2.345 8.515 8.515 0 01.489 2.68c-.177 1.179-1.776 1.679-2.246 2.536a16.548 16.548 0 007.524 8.231c.851-.459 1.606-1.839 2.785-1.867a5.246 5.246 0 011.417.336c.48.141.9.321 1.319.478a5.819 5.819 0 012.394 1.2 3.4 3.4 0 01.585 2.2c-.194 1.216-2.241 2.566-3.467 3.015zm2.394-11.867a6.034 6.034 0 00-6.1-5.971V4.6a7.617 7.617 0 017.7 7.537zm4.747 0A10.734 10.734 0 0012.615 1.509V0A12.26 12.26 0 0125 12.131zm-9.413 0a1.416 1.416 0 00-1.431-1.4V9.2a2.962 2.962 0 012.993 2.931z"/></g></svg>