<svg xmlns="http://www.w3.org/2000/svg" width="1050" height="23" viewBox="0 0 1050 23">
  <g id="zigzag-line-desktop.svg" transform="translate(-100 -1614)">
    <g id="zigzag-line-desktop.svg-2" data-name="zigzag-line-desktop.svg" transform="translate(100 1637)">
      <g id="Group_11" data-name="Group 11">
        <path id="Path_59" data-name="Path 59" d="M1050-23c-8.233,0-12.534,4.589-15.991,8.276C1030.894-11.4,1028.643-9,1023.752-9s-7.143-2.4-10.258-5.724C1010.036-18.411,1005.735-23,997.5-23s-12.534,4.589-15.991,8.276C978.4-11.4,976.146-9,971.255-9S964.113-11.4,961-14.724C957.54-18.411,953.238-23,945.006-23s-12.535,4.589-15.992,8.276C925.9-11.4,923.648-9,918.756-9s-7.142-2.4-10.258-5.724C905.042-18.411,900.74-23,892.508-23s-12.534,4.589-15.991,8.276C873.4-11.4,871.151-9,866.26-9S859.117-11.4,856-14.724C852.545-18.411,848.243-23,840.011-23s-12.535,4.589-15.992,8.276C820.9-11.4,818.653-9,813.762-9s-7.143-2.4-10.258-5.724C800.047-18.411,795.745-23,787.513-23s-12.535,4.589-15.992,8.276C768.406-11.4,766.155-9,761.263-9s-7.141-2.4-10.255-5.723C747.552-18.411,743.25-23,735.018-23s-12.534,4.589-15.991,8.276C715.912-11.4,713.661-9,708.768-9s-7.141-2.4-10.255-5.723C695.057-18.411,690.756-23,682.524-23s-12.534,4.589-15.99,8.277C663.419-11.4,661.169-9,656.276-9s-7.141-2.4-10.256-5.723C642.564-18.411,638.262-23,630.029-23S617.5-18.411,614.04-14.724C610.926-11.4,608.675-9,603.784-9s-7.142-2.4-10.257-5.724C590.07-18.411,585.769-23,577.536-23S565-18.411,561.544-14.724C558.428-11.4,556.178-9,551.285-9s-7.142-2.4-10.257-5.724C537.571-18.411,533.269-23,525.036-23s-12.534,4.589-15.991,8.276C505.931-11.4,503.68-9,498.788-9s-7.143-2.4-10.257-5.724C485.074-18.411,480.772-23,472.54-23s-12.534,4.589-15.991,8.276C453.435-11.4,451.183-9,446.292-9s-7.143-2.4-10.259-5.724C432.576-18.411,428.274-23,420.042-23s-12.535,4.589-15.993,8.276C400.934-11.4,398.683-9,393.789-9s-7.143-2.4-10.258-5.724C380.074-18.411,375.772-23,367.539-23S355-18.411,351.547-14.724C348.432-11.4,346.181-9,341.288-9s-7.143-2.4-10.258-5.724C327.573-18.411,323.271-23,315.038-23s-12.535,4.589-15.993,8.276C295.93-11.4,293.68-9,288.787-9s-7.144-2.4-10.259-5.724C275.072-18.411,270.769-23,262.536-23S250-18.411,246.543-14.724C243.427-11.4,241.176-9,236.283-9s-7.142-2.4-10.257-5.724C222.57-18.411,218.268-23,210.036-23s-12.535,4.589-15.992,8.276C190.928-11.4,188.679-9,183.786-9s-7.144-2.4-10.259-5.724C170.07-18.411,165.768-23,157.535-23S145-18.411,141.541-14.724C138.426-11.4,136.175-9,131.281-9s-7.145-2.4-10.261-5.724C117.563-18.411,113.26-23,105.026-23S92.49-18.411,89.033-14.724C85.916-11.4,83.665-9,78.771-9s-7.145-2.4-10.261-5.724C65.053-18.411,60.75-23,52.516-23s-12.537,4.588-16,8.276C33.4-11.4,31.153-9,26.258-9S19.112-11.4,16-14.724C12.538-18.411,8.235-23,0-23v9c4.895,0,7.146,2.4,10.264,5.724C13.721-4.588,18.024,0,26.258,0s12.538-4.588,16-8.276C45.37-11.6,47.622-14,52.516-14s7.145,2.4,10.261,5.724C66.235-4.589,70.537,0,78.771,0S91.308-4.589,94.766-8.276C97.882-11.6,100.133-14,105.026-14s7.145,2.4,10.262,5.724C118.745-4.589,123.048,0,131.281,0s12.536-4.589,15.994-8.276C150.39-11.6,152.642-14,157.535-14s7.144,2.4,10.259,5.724C171.25-4.589,175.553,0,183.786,0s12.535-4.589,15.992-8.276C202.893-11.6,205.144-14,210.036-14s7.142,2.4,10.257,5.724C223.75-4.589,228.051,0,236.283,0s12.536-4.589,15.993-8.276C255.391-11.6,257.643-14,262.536-14s7.144,2.4,10.259,5.724C276.251-4.589,280.555,0,288.787,0s12.535-4.589,15.992-8.276C307.895-11.6,310.145-14,315.038-14s7.143,2.4,10.258,5.724C328.754-4.589,333.055,0,341.288,0s12.535-4.589,15.993-8.276C360.4-11.6,362.647-14,367.539-14s7.144,2.4,10.259,5.724C381.255-4.589,385.557,0,393.789,0s12.536-4.589,15.994-8.276C412.9-11.6,415.149-14,420.042-14s7.143,2.4,10.258,5.724C433.757-4.589,438.059,0,446.292,0s12.534-4.589,15.991-8.276C465.4-11.6,467.648-14,472.54-14s7.143,2.4,10.257,5.724C486.254-4.589,490.555,0,498.788,0s12.534-4.589,15.991-8.276C517.894-11.6,520.144-14,525.036-14s7.142,2.4,10.257,5.724C538.75-4.589,543.052,0,551.285,0s12.536-4.589,15.993-8.276C570.393-11.6,572.644-14,577.536-14s7.142,2.4,10.257,5.724C591.25-4.589,595.551,0,603.784,0s12.534-4.589,15.99-8.277C622.888-11.6,625.139-14,630.029-14s7.142,2.4,10.258,5.724C643.743-4.589,648.045,0,656.276,0s12.534-4.589,15.99-8.276C675.382-11.6,677.633-14,682.524-14s7.142,2.4,10.256,5.723C696.236-4.589,700.537,0,708.768,0S721.3-4.589,724.76-8.276C727.876-11.6,730.126-14,735.018-14s7.142,2.4,10.256,5.724C748.73-4.589,753.032,0,761.263,0S773.8-4.589,777.254-8.276C780.369-11.6,782.62-14,787.513-14s7.143,2.4,10.258,5.724C801.228-4.589,805.53,0,813.762,0s12.533-4.589,15.99-8.276C832.867-11.6,835.118-14,840.011-14s7.143,2.4,10.258,5.724C853.726-4.589,858.027,0,866.26,0s12.533-4.589,15.99-8.276C885.365-11.6,887.616-14,892.508-14s7.142,2.4,10.257,5.724C906.222-4.589,910.523,0,918.756,0s12.534-4.589,15.991-8.276C937.864-11.6,940.113-14,945.006-14s7.142,2.4,10.257,5.724C958.72-4.589,963.022,0,971.255,0s12.533-4.589,15.991-8.276C990.361-11.6,992.611-14,997.5-14s7.142,2.4,10.257,5.724C1011.217-4.589,1015.519,0,1023.752,0s12.533-4.589,15.991-8.276C1042.858-11.6,1045.109-14,1050-14Z" fill="#e0e1e3"/>
      </g>
    </g>
    <path id="Color_Overlay" data-name="Color Overlay" d="M1107.76,1628.724c-3.115-3.323-5.366-5.724-10.257-5.724s-7.141,2.4-10.256,5.724c-3.458,3.687-7.76,8.276-15.991,8.276s-12.534-4.589-15.991-8.276c-3.116-3.323-5.366-5.724-10.257-5.724s-7.142,2.4-10.259,5.724c-3.457,3.687-7.759,8.276-15.991,8.276s-12.534-4.589-15.99-8.276C999.65,1625.4,997.4,1623,992.508,1623s-7.143,2.4-10.258,5.724c-3.457,3.687-7.758,8.276-15.99,8.276s-12.534-4.589-15.991-8.276c-3.115-3.323-5.366-5.724-10.257-5.724s-7.144,2.4-10.259,5.724c-3.457,3.687-7.758,8.276-15.99,8.276s-12.534-4.589-15.991-8.276c-3.115-3.323-5.366-5.724-10.258-5.724s-7.143,2.4-10.259,5.724c-3.457,3.687-7.759,8.276-15.991,8.276s-12.532-4.589-15.988-8.276c-3.115-3.323-5.365-5.724-10.256-5.724s-7.142,2.4-10.258,5.724C821.3,1632.411,817,1637,808.768,1637s-12.533-4.589-15.988-8.277c-3.115-3.322-5.366-5.723-10.256-5.723s-7.142,2.4-10.257,5.724c-3.456,3.687-7.758,8.276-15.99,8.276s-12.533-4.589-15.989-8.276c-3.116-3.323-5.366-5.724-10.258-5.724s-7.141,2.4-10.255,5.723c-3.456,3.688-7.757,8.277-15.99,8.277s-12.533-4.589-15.991-8.276c-3.115-3.323-5.366-5.724-10.257-5.724s-7.142,2.4-10.258,5.724c-3.456,3.687-7.759,8.276-15.992,8.276s-12.534-4.589-15.991-8.276c-3.116-3.323-5.366-5.724-10.257-5.724s-7.142,2.4-10.257,5.724c-3.457,3.687-7.759,8.276-15.991,8.276s-12.534-4.589-15.991-8.276c-3.114-3.323-5.365-5.724-10.256-5.724s-7.143,2.4-10.257,5.724c-3.457,3.687-7.759,8.276-15.991,8.276s-12.535-4.589-15.992-8.276c-3.115-3.323-5.366-5.724-10.258-5.724s-7.143,2.4-10.259,5.724c-3.457,3.687-7.76,8.276-15.993,8.276s-12.534-4.589-15.991-8.276c-3.116-3.323-5.366-5.724-10.259-5.724s-7.142,2.4-10.258,5.724c-3.458,3.687-7.76,8.276-15.993,8.276s-12.534-4.589-15.992-8.276c-3.115-3.323-5.366-5.724-10.257-5.724s-7.144,2.4-10.259,5.724c-3.457,3.687-7.759,8.276-15.992,8.276s-12.536-4.589-15.993-8.276c-3.115-3.323-5.366-5.724-10.259-5.724s-7.144,2.4-10.26,5.724c-3.457,3.687-7.76,8.276-15.992,8.276s-12.533-4.589-15.99-8.276c-3.116-3.323-5.366-5.724-10.257-5.724s-7.142,2.4-10.258,5.724c-3.457,3.687-7.759,8.276-15.992,8.276s-12.535-4.589-15.992-8.276c-3.115-3.323-5.367-5.724-10.258-5.724s-7.145,2.4-10.26,5.724c-3.458,3.687-7.76,8.276-15.994,8.276s-12.536-4.589-15.993-8.276c-3.116-3.323-5.368-5.724-10.262-5.724s-7.144,2.4-10.261,5.724c-3.458,3.687-7.76,8.276-15.995,8.276s-12.536-4.589-15.994-8.276c-3.116-3.323-5.367-5.724-10.26-5.724s-7.147,2.4-10.263,5.724c-3.458,3.688-7.761,8.276-16,8.276s-12.537-4.588-15.995-8.276C107.146,1625.4,104.9,1623,100,1623v-9c8.235,0,12.538,4.589,16,8.276,3.116,3.323,5.368,5.724,10.263,5.724s7.146-2.4,10.263-5.724c3.459-3.688,7.761-8.276,16-8.276s12.536,4.589,15.993,8.276c3.117,3.323,5.368,5.724,10.261,5.724s7.146-2.4,10.262-5.724c3.458-3.687,7.76-8.276,15.994-8.276s12.537,4.589,15.994,8.276c3.116,3.323,5.367,5.724,10.261,5.724s7.144-2.4,10.26-5.724c3.458-3.687,7.76-8.276,15.994-8.276s12.535,4.589,15.991,8.276c3.116,3.323,5.368,5.724,10.259,5.724s7.143-2.4,10.258-5.724c3.457-3.687,7.76-8.276,15.992-8.276s12.534,4.589,15.99,8.276c3.115,3.323,5.366,5.724,10.257,5.724s7.144-2.4,10.259-5.724c3.458-3.687,7.76-8.276,15.993-8.276s12.536,4.589,15.993,8.276c3.116,3.323,5.366,5.724,10.259,5.724s7.142-2.4,10.258-5.724c3.458-3.687,7.759-8.276,15.993-8.276s12.534,4.589,15.991,8.276c3.116,3.323,5.367,5.724,10.258,5.724s7.144-2.4,10.259-5.724c3.457-3.687,7.76-8.276,15.992-8.276s12.535,4.589,15.992,8.276c3.115,3.323,5.366,5.724,10.258,5.724s7.144-2.4,10.259-5.724c3.458-3.687,7.761-8.276,15.993-8.276s12.534,4.589,15.991,8.276c3.117,3.323,5.366,5.724,10.259,5.724s7.142-2.4,10.257-5.724c3.457-3.687,7.759-8.276,15.991-8.276s12.534,4.589,15.99,8.276c3.115,3.323,5.366,5.724,10.257,5.724s7.143-2.4,10.257-5.724c3.457-3.687,7.759-8.276,15.991-8.276s12.534,4.589,15.991,8.276c3.115,3.323,5.366,5.724,10.257,5.724s7.143-2.4,10.258-5.724c3.457-3.687,7.76-8.276,15.992-8.276s12.534,4.589,15.991,8.276c3.116,3.323,5.366,5.724,10.257,5.724s7.141-2.4,10.256-5.724c3.457-3.687,7.758-8.276,15.989-8.276s12.535,4.589,15.991,8.277c3.116,3.322,5.365,5.723,10.256,5.723s7.142-2.4,10.257-5.723c3.456-3.688,7.758-8.277,15.99-8.277s12.533,4.589,15.989,8.277c3.114,3.322,5.365,5.723,10.255,5.723s7.144-2.4,10.259-5.724c3.457-3.687,7.759-8.276,15.991-8.276s12.533,4.589,15.989,8.277c3.114,3.323,5.365,5.723,10.255,5.723s7.143-2.4,10.258-5.724c3.457-3.687,7.76-8.276,15.992-8.276s12.534,4.589,15.991,8.276c3.115,3.323,5.366,5.724,10.258,5.724s7.142-2.4,10.257-5.724c3.457-3.687,7.759-8.276,15.992-8.276s12.533,4.589,15.99,8.276c3.116,3.323,5.367,5.724,10.258,5.724s7.142-2.4,10.257-5.724c3.457-3.687,7.758-8.276,15.991-8.276s12.533,4.589,15.99,8.276c3.116,3.323,5.366,5.724,10.257,5.724s7.143-2.4,10.258-5.724c3.457-3.687,7.759-8.276,15.992-8.276s12.533,4.589,15.99,8.276c3.116,3.323,5.366,5.724,10.258,5.724s7.141-2.4,10.257-5.724c3.456-3.687,7.758-8.276,15.99-8.276s12.533,4.589,15.991,8.276c3.116,3.323,5.366,5.724,10.258,5.724s7.141-2.4,10.257-5.724c3.457-3.687,7.758-8.276,15.991-8.276v9c-4.891,0-7.142,2.4-10.257,5.724-3.458,3.687-7.758,8.276-15.991,8.276S1111.217,1632.411,1107.76,1628.724Z" fill="#f1f1f1"/>
  </g>
</svg>
