<svg xmlns="http://www.w3.org/2000/svg" width="771" height="15" viewBox="0 0 771 15">
  <g id="zigzag-line-desktop.svg" transform="translate(1 -1443)">
    <g id="zigzag-line-desktop.svg-2" data-name="zigzag-line-desktop.svg" transform="translate(-1 1458)">
      <g id="Group_9" data-name="Group 9">
        <path id="Path_57" data-name="Path 57" d="M771-15c-6.045,0-9.2,2.993-11.742,5.4-2.288,2.167-3.94,3.733-7.532,3.733s-5.245-1.566-7.532-3.733c-2.539-2.4-5.7-5.4-11.742-5.4s-9.2,2.993-11.742,5.4c-2.288,2.167-3.94,3.733-7.532,3.733s-5.244-1.566-7.532-3.733c-2.538-2.4-5.7-5.4-11.741-5.4s-9.2,2.993-11.743,5.4c-2.288,2.167-3.94,3.733-7.532,3.733S669.386-7.435,667.1-9.6c-2.538-2.4-5.7-5.4-11.741-5.4s-9.2,2.993-11.742,5.4c-2.287,2.167-3.94,3.733-7.532,3.733S630.838-7.435,628.55-9.6c-2.538-2.4-5.7-5.4-11.742-5.4s-9.2,2.993-11.743,5.4c-2.287,2.167-3.94,3.733-7.532,3.733S592.289-7.435,590-9.6c-2.538-2.4-5.7-5.4-11.742-5.4s-9.2,2.993-11.743,5.4c-2.288,2.167-3.94,3.733-7.532,3.733s-5.243-1.565-7.53-3.732c-2.538-2.405-5.7-5.4-11.741-5.4s-9.2,2.993-11.742,5.4c-2.287,2.167-3.94,3.733-7.533,3.733s-5.244-1.566-7.53-3.732c-2.538-2.405-5.7-5.4-11.741-5.4s-9.2,2.993-11.741,5.4c-2.287,2.167-3.939,3.732-7.532,3.732s-5.243-1.566-7.531-3.732c-2.538-2.405-5.7-5.4-11.742-5.4s-9.2,2.993-11.741,5.4c-2.287,2.167-3.939,3.733-7.531,3.733s-5.244-1.566-7.532-3.733c-2.538-2.4-5.7-5.4-11.742-5.4s-9.2,2.993-11.743,5.4c-2.288,2.167-3.94,3.733-7.533,3.733s-5.244-1.566-7.532-3.733c-2.538-2.4-5.7-5.4-11.742-5.4s-9.2,2.993-11.742,5.4c-2.287,2.167-3.939,3.733-7.532,3.733s-5.245-1.566-7.532-3.733c-2.538-2.4-5.7-5.4-11.742-5.4s-9.2,2.993-11.742,5.4c-2.287,2.167-3.94,3.733-7.532,3.733s-5.245-1.566-7.533-3.733c-2.538-2.4-5.7-5.4-11.742-5.4s-9.2,2.993-11.743,5.4c-2.288,2.167-3.94,3.733-7.534,3.733s-5.245-1.566-7.532-3.733c-2.538-2.4-5.7-5.4-11.743-5.4s-9.2,2.993-11.743,5.4C255.849-7.435,254.2-5.87,250.6-5.87s-5.245-1.566-7.532-3.733c-2.539-2.4-5.7-5.4-11.743-5.4s-9.2,2.993-11.743,5.4c-2.288,2.167-3.94,3.733-7.532,3.733s-5.245-1.566-7.533-3.733c-2.538-2.4-5.7-5.4-11.743-5.4s-9.2,2.993-11.743,5.4c-2.288,2.167-3.941,3.733-7.534,3.733s-5.244-1.566-7.532-3.733c-2.538-2.4-5.7-5.4-11.741-5.4s-9.2,2.993-11.743,5.4c-2.288,2.167-3.939,3.733-7.532,3.733s-5.245-1.566-7.533-3.733c-2.538-2.4-5.7-5.4-11.743-5.4s-9.205,2.993-11.744,5.4C101.644-7.435,99.991-5.87,96.4-5.87S91.152-7.435,88.863-9.6c-2.538-2.4-5.7-5.4-11.744-5.4s-9.205,2.993-11.744,5.4C63.087-7.435,61.434-5.87,57.84-5.87S52.594-7.435,50.306-9.6c-2.539-2.4-5.7-5.4-11.744-5.4s-9.206,2.992-11.745,5.4C24.529-7.435,22.875-5.87,19.281-5.87S14.034-7.435,11.745-9.6C9.206-12.007,6.047-15,0-15v5.87c3.594,0,5.247,1.566,7.536,3.733C10.075-2.992,13.235,0,19.281,0s9.206-2.992,11.745-5.4c2.288-2.167,3.941-3.733,7.536-3.733S43.808-7.565,46.1-5.4c2.539,2.4,5.7,5.4,11.744,5.4s9.206-2.993,11.745-5.4c2.288-2.167,3.941-3.733,7.534-3.733S82.366-7.565,84.654-5.4C87.193-2.993,90.352,0,96.4,0s9.205-2.993,11.744-5.4c2.288-2.167,3.941-3.733,7.534-3.733s5.245,1.566,7.533,3.733c2.538,2.4,5.7,5.4,11.743,5.4s9.2-2.993,11.743-5.4c2.288-2.167,3.94-3.733,7.532-3.733s5.244,1.566,7.532,3.733c2.538,2.4,5.7,5.4,11.741,5.4s9.205-2.993,11.743-5.4c2.288-2.167,3.941-3.733,7.534-3.733s5.245,1.566,7.533,3.733c2.538,2.4,5.7,5.4,11.743,5.4s9.2-2.993,11.743-5.4c2.288-2.167,3.94-3.733,7.533-3.733s5.245,1.566,7.532,3.733c2.539,2.4,5.7,5.4,11.743,5.4s9.2-2.993,11.743-5.4c2.288-2.167,3.94-3.733,7.532-3.733s5.245,1.566,7.533,3.733c2.538,2.4,5.7,5.4,11.742,5.4s9.205-2.993,11.744-5.4c2.288-2.167,3.94-3.733,7.533-3.733s5.245,1.566,7.532,3.733c2.538,2.4,5.7,5.4,11.743,5.4s9.2-2.993,11.742-5.4c2.287-2.167,3.939-3.733,7.532-3.733s5.245,1.566,7.532,3.733c2.538,2.4,5.7,5.4,11.742,5.4s9.2-2.993,11.742-5.4c2.287-2.167,3.939-3.733,7.532-3.733s5.244,1.566,7.532,3.733c2.538,2.4,5.7,5.4,11.742,5.4s9.205-2.993,11.743-5.4c2.288-2.167,3.94-3.733,7.532-3.733s5.244,1.566,7.532,3.733c2.539,2.4,5.7,5.4,11.742,5.4s9.2-2.993,11.741-5.4c2.287-2.167,3.939-3.732,7.53-3.732s5.244,1.566,7.532,3.733c2.538,2.4,5.7,5.4,11.741,5.4s9.2-2.993,11.741-5.4c2.288-2.167,3.94-3.733,7.532-3.733S506.412-7.565,508.7-5.4c2.538,2.405,5.7,5.4,11.74,5.4s9.2-2.993,11.743-5.4c2.288-2.167,3.94-3.733,7.532-3.733s5.244,1.566,7.531,3.733c2.538,2.4,5.7,5.4,11.74,5.4s9.2-2.993,11.742-5.4c2.288-2.167,3.94-3.733,7.533-3.733S583.5-7.565,585.792-5.4c2.538,2.4,5.7,5.4,11.742,5.4s9.2-2.993,11.741-5.4c2.288-2.167,3.94-3.733,7.533-3.733s5.245,1.566,7.532,3.733c2.538,2.4,5.7,5.4,11.742,5.4s9.2-2.993,11.741-5.4c2.288-2.167,3.94-3.733,7.532-3.733S660.6-7.565,662.888-5.4c2.538,2.4,5.7,5.4,11.742,5.4s9.2-2.993,11.742-5.4c2.288-2.167,3.94-3.733,7.533-3.733s5.244,1.566,7.532,3.733c2.538,2.4,5.7,5.4,11.742,5.4s9.2-2.993,11.742-5.4c2.288-2.167,3.939-3.733,7.532-3.733S737.7-7.565,739.984-5.4c2.538,2.4,5.7,5.4,11.743,5.4s9.2-2.993,11.742-5.4c2.288-2.167,3.94-3.733,7.532-3.733Z" fill="#e0e1e3"/>
      </g>
    </g>
    <path id="Color_Overlay" data-name="Color Overlay" d="M738.984,1452.6c-2.288-2.167-3.94-3.733-7.531-3.733s-5.244,1.566-7.532,3.733c-2.539,2.4-5.7,5.4-11.742,5.4s-9.2-2.992-11.741-5.4c-2.288-2.167-3.94-3.733-7.532-3.733s-5.244,1.566-7.533,3.733c-2.538,2.4-5.7,5.4-11.741,5.4s-9.2-2.992-11.742-5.4c-2.288-2.167-3.94-3.733-7.532-3.733s-5.244,1.566-7.532,3.733c-2.538,2.4-5.7,5.4-11.741,5.4s-9.2-2.992-11.741-5.4c-2.288-2.167-3.94-3.733-7.533-3.733s-5.245,1.566-7.533,3.733c-2.538,2.4-5.7,5.4-11.741,5.4s-9.2-2.992-11.741-5.4c-2.288-2.167-3.94-3.733-7.533-3.733s-5.245,1.566-7.533,3.733c-2.538,2.4-5.7,5.4-11.741,5.4s-9.2-2.992-11.741-5.4c-2.287-2.167-3.939-3.733-7.53-3.733s-5.245,1.566-7.533,3.733c-2.538,2.4-5.7,5.4-11.742,5.4s-9.2-2.992-11.74-5.4c-2.286-2.166-3.939-3.732-7.53-3.732s-5.244,1.566-7.532,3.733c-2.537,2.4-5.7,5.4-11.741,5.4s-9.2-2.992-11.741-5.4c-2.288-2.167-3.94-3.733-7.532-3.733s-5.243,1.565-7.53,3.732c-2.538,2.406-5.7,5.4-11.741,5.4s-9.2-2.992-11.742-5.4c-2.287-2.167-3.94-3.733-7.531-3.733s-5.245,1.566-7.533,3.733c-2.538,2.4-5.7,5.4-11.743,5.4s-9.2-2.992-11.741-5.4c-2.288-2.167-3.94-3.733-7.532-3.733s-5.244,1.566-7.531,3.733c-2.539,2.4-5.7,5.4-11.742,5.4s-9.2-2.992-11.742-5.4c-2.287-2.167-3.939-3.733-7.531-3.733s-5.245,1.566-7.532,3.733c-2.538,2.4-5.7,5.4-11.741,5.4s-9.205-2.992-11.743-5.4c-2.288-2.167-3.94-3.733-7.532-3.733s-5.245,1.566-7.533,3.733c-2.539,2.4-5.7,5.4-11.744,5.4s-9.2-2.992-11.742-5.4c-2.287-2.167-3.94-3.733-7.533-3.733s-5.244,1.566-7.532,3.733c-2.539,2.4-5.7,5.4-11.743,5.4s-9.2-2.992-11.742-5.4c-2.288-2.167-3.94-3.733-7.533-3.733s-5.245,1.566-7.533,3.733c-2.538,2.4-5.7,5.4-11.742,5.4s-9.205-2.992-11.743-5.4c-2.288-2.167-3.94-3.733-7.533-3.733s-5.246,1.566-7.534,3.733c-2.538,2.4-5.7,5.4-11.743,5.4s-9.2-2.992-11.741-5.4c-2.288-2.167-3.94-3.733-7.532-3.733s-5.244,1.566-7.532,3.733c-2.538,2.4-5.7,5.4-11.742,5.4s-9.2-2.992-11.743-5.4c-2.287-2.167-3.94-3.733-7.533-3.733s-5.246,1.566-7.533,3.733c-2.539,2.4-5.7,5.4-11.744,5.4s-9.205-2.992-11.743-5.4c-2.289-2.167-3.942-3.733-7.536-3.733s-5.246,1.566-7.534,3.733c-2.539,2.4-5.7,5.4-11.745,5.4s-9.205-2.992-11.744-5.4c-2.288-2.167-3.94-3.733-7.534-3.733s-5.248,1.566-7.536,3.733c-2.539,2.4-5.7,5.4-11.746,5.4s-9.205-2.992-11.744-5.4c-2.289-2.167-3.942-3.733-7.537-3.733V1443c6.047,0,9.206,2.993,11.745,5.4,2.289,2.167,3.942,3.733,7.536,3.733s5.248-1.566,7.536-3.733c2.54-2.4,5.7-5.4,11.746-5.4s9.205,2.993,11.744,5.4c2.288,2.167,3.941,3.733,7.534,3.733s5.247-1.566,7.535-3.733c2.539-2.4,5.7-5.4,11.744-5.4s9.206,2.993,11.744,5.4c2.289,2.167,3.941,3.733,7.535,3.733s5.246-1.566,7.533-3.733c2.539-2.4,5.7-5.4,11.744-5.4s9.2,2.993,11.743,5.4c2.287,2.167,3.94,3.733,7.533,3.733s5.244-1.566,7.532-3.733c2.538-2.4,5.7-5.4,11.742-5.4s9.2,2.993,11.741,5.4c2.288,2.167,3.94,3.733,7.532,3.733s5.246-1.566,7.534-3.733c2.539-2.4,5.7-5.4,11.743-5.4s9.205,2.993,11.743,5.4c2.288,2.167,3.94,3.733,7.533,3.733s5.244-1.566,7.532-3.733c2.539-2.4,5.7-5.4,11.743-5.4s9.2,2.993,11.743,5.4c2.287,2.167,3.94,3.733,7.532,3.733s5.245-1.566,7.533-3.733c2.538-2.4,5.7-5.4,11.742-5.4s9.2,2.993,11.743,5.4c2.287,2.167,3.94,3.733,7.532,3.733s5.246-1.566,7.534-3.733c2.539-2.4,5.7-5.4,11.743-5.4s9.2,2.993,11.742,5.4c2.288,2.167,3.94,3.733,7.533,3.733s5.244-1.566,7.531-3.733c2.538-2.4,5.7-5.4,11.742-5.4s9.2,2.993,11.741,5.4c2.287,2.167,3.94,3.733,7.532,3.733s5.244-1.566,7.531-3.733c2.539-2.4,5.7-5.4,11.742-5.4s9.2,2.993,11.742,5.4c2.287,2.167,3.94,3.733,7.531,3.733s5.246-1.566,7.533-3.733c2.539-2.4,5.7-5.4,11.743-5.4s9.2,2.993,11.741,5.4c2.288,2.167,3.94,3.733,7.532,3.733s5.244-1.566,7.531-3.733c2.538-2.4,5.7-5.4,11.74-5.4s9.2,2.993,11.742,5.4c2.287,2.166,3.939,3.732,7.53,3.732s5.245-1.566,7.532-3.732c2.537-2.4,5.7-5.4,11.741-5.4s9.2,2.993,11.741,5.4c2.287,2.166,3.939,3.732,7.53,3.732s5.245-1.566,7.533-3.733c2.538-2.4,5.7-5.4,11.742-5.4s9.2,2.993,11.74,5.4c2.287,2.167,3.939,3.732,7.53,3.732s5.244-1.566,7.532-3.733c2.538-2.4,5.7-5.4,11.742-5.4s9.2,2.993,11.742,5.4c2.288,2.167,3.94,3.733,7.532,3.733s5.244-1.566,7.532-3.733c2.538-2.4,5.7-5.4,11.742-5.4s9.2,2.993,11.742,5.4c2.288,2.167,3.94,3.733,7.532,3.733s5.244-1.566,7.532-3.733c2.538-2.4,5.7-5.4,11.741-5.4s9.2,2.993,11.741,5.4c2.289,2.167,3.94,3.733,7.533,3.733s5.244-1.566,7.532-3.733c2.538-2.4,5.7-5.4,11.742-5.4s9.2,2.993,11.741,5.4c2.289,2.167,3.94,3.733,7.532,3.733s5.244-1.566,7.532-3.733c2.538-2.4,5.7-5.4,11.742-5.4s9.2,2.993,11.741,5.4c2.288,2.167,3.94,3.733,7.532,3.733s5.244-1.566,7.532-3.733c2.538-2.4,5.7-5.4,11.742-5.4v5.87c-3.592,0-5.244,1.566-7.532,3.733-2.539,2.4-5.7,5.4-11.742,5.4S741.522,1455.008,738.984,1452.6Z" fill="#f1f1f1"/>
  </g>
</svg>
