<svg xmlns="http://www.w3.org/2000/svg" width="768.286" height="22.715" viewBox="0 0 768.286 22.715">
  <g id="zigzag-fill-desktop.svg" transform="translate(0.143 -302.643)">
    <g id="zigzag-fill-desktop.svg-2" data-name="zigzag-fill-desktop.svg" transform="translate(-0.143 302.643)">
      <path id="Path_17" data-name="Path 17" d="M749.08,0c-9.6,0-9.6,9.353-19.206,9.353S720.27,0,710.667,0s-9.6,9.353-19.206,9.353S681.858,0,672.254,0s-9.6,9.353-19.206,9.353S643.446,0,633.843,0s-9.6,9.353-19.206,9.353S605.033,0,595.43,0s-9.6,9.353-19.206,9.353S566.62,0,557.016,0s-9.6,9.353-19.2,9.353S528.21,0,518.606,0,509,9.353,499.4,9.353,489.8,0,480.2,0s-9.6,9.353-19.205,9.353S451.391,0,441.789,0s-9.6,9.353-19.206,9.353S412.979,0,403.375,0s-9.6,9.353-19.206,9.353S374.567,0,364.964,0s-9.6,9.353-19.206,9.353S336.155,0,326.552,0s-9.6,9.353-19.207,9.353S297.741,0,288.136,0s-9.6,9.353-19.207,9.353S259.325,0,249.721,0s-9.6,9.353-19.207,9.353S220.909,0,211.306,0,201.7,9.353,192.1,9.353,182.493,0,172.888,0s-9.6,9.353-19.205,9.353S144.08,0,134.476,0s-9.6,9.353-19.208,9.353S105.663,0,96.058,0s-9.6,9.353-19.21,9.353S67.242,0,57.637,0s-9.606,9.353-19.21,9.353S28.82,0,19.213,0,9.607,9.353,0,9.353V22.715H768.285V9.353C758.683,9.353,758.683,0,749.08,0Z" fill="#fff"/>
    </g>
    <path id="Color_Overlay" data-name="Color Overlay" d="M-.143,325.357V312c9.608,0,9.608-9.353,19.213-9.353S28.678,312,38.283,312s9.6-9.353,19.21-9.353S67.1,312,76.705,312s9.606-9.353,19.211-9.353,9.6,9.353,19.21,9.353,9.6-9.353,19.208-9.353S143.937,312,153.54,312s9.6-9.353,19.206-9.353,9.6,9.353,19.209,9.353,9.6-9.353,19.209-9.353,9.6,9.353,19.208,9.353,9.6-9.353,19.207-9.353,9.6,9.353,19.208,9.353,9.6-9.353,19.207-9.353S297.6,312,307.2,312s9.6-9.353,19.207-9.353,9.6,9.353,19.206,9.353,9.6-9.353,19.206-9.353,9.6,9.353,19.205,9.353,9.6-9.353,19.206-9.353S412.837,312,422.44,312s9.6-9.353,19.206-9.353,9.6,9.353,19.2,9.353,9.6-9.353,19.206-9.353,9.6,9.353,19.205,9.353,9.6-9.353,19.2-9.353,9.6,9.353,19.208,9.353,9.6-9.353,19.2-9.353,9.6,9.353,19.208,9.353,9.6-9.353,19.206-9.353S604.89,312,614.494,312s9.6-9.353,19.206-9.353S643.3,312,652.906,312s9.6-9.353,19.206-9.353,9.6,9.353,19.207,9.353,9.6-9.353,19.206-9.353,9.6,9.353,19.206,9.353,9.6-9.353,19.206-9.353S758.54,312,768.143,312v13.361Z" fill="#fff"/>
  </g>
</svg>
